<svg role="img" viewBox="0 0 73 37" xmlns="http://www.w3.org/2000/svg">
    <title>Telekom</title>
    <g fill="#E20074" fill-rule="evenodd">
        <path d="M.381 24.34h7.148v-7.148H.38zM22.177 24.34h7.147v-7.148h-7.147zM43.62 24.34h7.147v-7.148H43.62zM65.063 24.34h7.147v-7.148h-7.147z"></path>
        <path d="M28.97.955H.735L.38 13.409l1.873.325c.349-3.67 1.312-6.394 2.89-8.17 1.66-1.86 3.945-2.831 6.884-2.915v26.056c0 2.275-.317 3.752-.982 4.433-.564.583-1.52.94-2.864 1.071-.398.033-1.08.05-2.042.05v1.993h17.425v-1.993c-.963 0-1.643-.017-2.043-.05-1.344-.132-2.3-.488-2.864-1.071-.664-.681-.986-2.158-.986-4.433V2.649c2.94.084 5.23 1.055 6.89 2.915 1.578 1.776 2.54 4.5 2.889 8.17l1.873-.325L28.971.955"></path>
    </g>
</svg>