<svg xmlns="http://www.w3.org/2000/svg" viewBox="0 0 912 253.06" fill="#3f6372"><g id="Ebene_2" data-name="Ebene 2"><g id="Ebene_1-2" data-name="Ebene 1"><path d="M381.87,143.42c0-50.29-30.81-70.82-69.76-70.82-24.08,0-50.81,9.15-66,36.41A124,124,0,0,0,124,5.77h0A124,124,0,0,0,0,129.72H0A124,124,0,0,0,92.31,249.58V167.85c0-7.43-2.12-12.39-5.67-12.39-8.14,0-9.2-3.54-9.2-8.5,0-8.85,10.27-13.1,17.7-13.1h31.17c9.56,0,9.91,11.69,9.91,22.31,13.1-18.06,34.35-26.56,52.06-26.56,31,0,45.87,18.21,46.34,55.9.21-.41.39-.84.59-1.26,5.44,37.94,27.71,68.59,74.42,68.59,20.53,0,36.12-5.31,47.1-13.46,17.35-13.1,21.95-22.66,21.95-28.32s-3.19-9.57-8.14-9.57c-6.73,0-8.5,5-16.29,12.4-9.21,8.85-19.13,14.16-34.71,14.16-26.56,0-40-23-40-65.51h83.21C378.33,162.54,381.87,156.17,381.87,143.42Zm-54.89.35H283.07c-1.77,0-3.54-.35-3.54-3.89,0-13.11,2.48-46.75,30.8-46.75,19.48,0,27.63,18.42,27.63,39C338,141.29,332.29,143.77,327,143.77Z"/><path d="M567.43,229.12c-3.54,0-5.31-4.61-5.31-11V130.67c0-38.95-14.87-57.72-46.39-57.72-17.71,0-39,8.5-52.05,26.56,0-10.63-.36-22.31-9.92-22.31H422.59c-7.43,0-17.7,4.25-17.7,13.1,0,5,1.06,8.5,9.21,8.5,3.54,0,5.66,5,5.66,12.39v107c0,8.85-1.41,11-6,11-7.79,0-8.5,3.54-8.5,7.79,0,7.43,6,12,17.35,12h37.9c11.68,0,17.35-4.61,17.35-12,0-4.25-1.42-7.79-9.21-7.79-3.18,0-4.95-4.61-4.95-11V144.48c0-30.1,14.16-38.6,28.32-38.6,22.67,0,26.21,19.12,26.21,39.31v72.95c0,7.43-1.77,11-6,11-7.79,0-8.5,3.54-8.5,7.79,0,7.43,6.37,12,17,12h38.6c11.68,0,17-4.61,17-12C576.28,232.66,575.22,229.12,567.43,229.12Z"/><path d="M634.72,49.22c14.17,0,24.08-10.62,24.08-24.79C658.09,9.92,647.82,0,633.3,0c-13.1,0-23.37,11.33-23.37,25.5S622.33,49.22,634.72,49.22Z"/><path d="M662.34,229.12c-3.19,0-5-4.61-5-11V101.63c0-17.35-1.06-24.43-9.56-24.43H617c-7.78,0-17.35,4.25-17.35,12.75,0,5,.71,8.49,8.85,8.49,3.55,0,5,5,5,12.4v107.3c0,7.43-1.41,11-5.66,11-8.15,0-8.86,3.54-8.86,7.79,0,7.43,6.38,12,17.36,12h38.24c11.69,0,17-4.61,17-12C671.55,232.66,670.13,229.12,662.34,229.12Z"/><path d="M800.1,72.6c-17,0-31.52,11.68-46,28.32,0-12-.35-23.72-10.27-23.72H713c-7.43,0-17.35,4.25-17.35,12.75,0,5,.71,8.49,8.85,8.49,3.55,0,5.67,5,5.67,12.4V215c0,8.5-1.42,12-6,12-7.79,0-8.5,4.25-8.5,8.5,0,8.5,6,13.46,17.35,13.46h37.89c7.44,0,17.36-5,17.36-13.46,0-4.25-1.42-8.5-9.21-8.5-3.19,0-5-5-5-12V139.88c0-27.62,18.41-35.77,27.62-35.77,13.81,0,16.65,14.17,28,14.17,14.52,0,14.87-20.54,14.87-25.85C824.53,77.2,815,72.6,800.1,72.6Z"/><path d="M875.17,49.22c14.17,0,24.08-10.62,24.08-24.79C898.54,9.92,888.28,0,873.76,0c-13.11,0-23.38,11.33-23.38,25.5S862.78,49.22,875.17,49.22Z"/><path d="M902.79,229.12c-3.18,0-5-4.61-5-11V101.63c0-17.35-1.06-24.43-9.55-24.43H857.47c-7.79,0-17.35,4.25-17.35,12.75,0,5,.7,8.49,8.85,8.49,3.54,0,5,5,5,12.4v107.3c0,7.43-1.42,11-5.67,11-8.14,0-8.85,3.54-8.85,7.79,0,7.43,6.37,12,17.35,12H895c11.69,0,17-4.61,17-12C912,232.66,910.58,229.12,902.79,229.12Z"/><path d="M164.55,162.54c-14.16,0-28.33,8.5-28.33,38.6v51.92a123.17,123.17,0,0,0,54.53-19V201.85C190.75,181.67,187.21,162.54,164.55,162.54Z"/></g></g></svg>
